<svg xmlns="http://www.w3.org/2000/svg" width="512" height="512" viewBox="0 0 512 512" version="1.1">
	<path d="M 0 256.002 L 0 512.004 256.250 511.752 L 512.500 511.500 512.752 255.750 L 513.004 0 256.502 0 L 0 0 0 256.002 M 0.492 256.500 C 0.492 397.300, 0.608 454.751, 0.750 384.170 C 0.892 313.588, 0.892 198.388, 0.750 128.170 C 0.608 57.951, 0.492 115.700, 0.492 256.500 M 143.574 86.173 C 143.036 88.662, 113 334.003, 113 335.906 C 113 336.723, 119.198 336.963, 135.250 336.769 L 157.500 336.500 163.697 287 C 167.105 259.775, 169.918 237.342, 169.947 237.150 C 169.976 236.957, 175.842 236.957, 182.982 237.150 C 195.886 237.498, 195.981 237.518, 198.924 240.500 C 200.914 242.517, 208.249 257.584, 221.318 286.500 C 232.377 310.972, 241.851 330.626, 243.304 332.113 C 244.707 333.550, 247.888 335.238, 250.371 335.863 C 256.458 337.396, 295 337.419, 295 335.890 C 295 335.279, 284.762 313.358, 272.250 287.176 C 251.290 243.318, 249.067 239.123, 244 233.865 L 238.500 228.157 246.320 224.976 C 262.357 218.452, 277.394 205.603, 286.055 191.025 C 296.451 173.524, 300.327 149.286, 295.812 130 C 291.649 112.218, 277.776 97.462, 258.754 90.583 C 243.052 84.904, 241.170 84.729, 190.789 84.270 L 144.077 83.845 143.574 86.173 M 359.545 85.250 C 359.117 86.616, 328.978 333.716, 328.992 335.750 C 328.998 336.713, 334.159 337, 351.439 337 L 373.877 337 374.472 332.750 C 374.800 330.413, 381.571 275.175, 389.519 210 C 397.468 144.825, 404.243 89.813, 404.574 87.750 L 405.176 84 382.557 84 C 365.337 84, 359.844 84.298, 359.545 85.250 M 179.625 158.750 C 176.956 180.613, 174.540 199.963, 174.255 201.750 L 173.738 205 190.281 205 C 210.447 205, 219.397 203.477, 229.054 198.402 C 240.922 192.166, 248.477 181.675, 251.553 167.163 C 255.719 147.508, 249.946 130.822, 236.689 124.201 C 229.009 120.366, 219.981 119.036, 201.489 119.017 L 184.477 119 179.625 158.750 M 91.604 382.032 C 87.528 383.261, 83.160 387.760, 82.014 391.912 C 79.830 399.820, 85.692 408.263, 94.208 409.476 C 96.569 409.812, 170.805 409.955, 259.177 409.794 C 419.673 409.500, 419.857 409.498, 422.615 407.438 C 431.824 400.562, 431.824 390.438, 422.615 383.562 C 419.855 381.501, 419.788 381.500, 257.177 381.330 C 166.868 381.235, 93.212 381.548, 91.604 382.032" stroke="none" fill="black" fill-rule="evenodd"/>
</svg>