<svg xmlns="http://www.w3.org/2000/svg" width="512" height="512" viewBox="0 0 512 512" version="1.1">
	<path d="M 0 256.002 L 0 512.004 256.250 511.752 L 512.500 511.500 512.752 255.750 L 513.004 0 256.502 0 L 0 0 0 256.002 M 0.492 256.500 C 0.492 397.300, 0.608 454.751, 0.750 384.170 C 0.892 313.588, 0.892 198.388, 0.750 128.170 C 0.608 57.951, 0.492 115.700, 0.492 256.500 M 110 57.895 C 110 58.458, 101 132.519, 90 222.475 C 79 312.431, 70 386.256, 70 386.531 C 70 386.805, 83.161 386.911, 99.246 386.765 L 128.492 386.500 129.144 381 C 129.503 377.975, 133.066 348.837, 137.063 316.250 L 144.330 257 158.415 257.006 C 174.573 257.012, 178.642 257.854, 182.733 262.038 C 184.706 264.056, 193.293 281.959, 208.985 316.769 C 221.811 345.221, 233.563 371.027, 235.100 374.117 C 238.324 380.598, 242.489 384.486, 247.781 385.956 C 253.494 387.543, 308.351 387.354, 307.731 385.750 C 307.466 385.063, 293.813 356.375, 277.392 322 L 247.535 259.500 240.518 252.482 L 233.500 245.463 242 242.108 C 279.388 227.351, 303.463 196.890, 309.661 156.500 C 311.494 144.552, 310.940 126.739, 308.431 117 C 300.495 86.185, 276.997 67.129, 237.374 59.374 C 229.718 57.876, 220.367 57.585, 169.250 57.254 C 129.256 56.996, 110 57.204, 110 57.895 M 391 59.013 C 391 59.569, 382 133.397, 371 223.075 C 360 312.752, 351 386.322, 351 386.562 C 351 386.803, 364.235 387, 380.412 387 L 409.824 387 410.426 383.250 C 411.363 377.415, 450 61.444, 450 59.619 C 450 58.163, 447.023 58, 420.500 58 C 401.256 58, 391 58.352, 391 59.013 M 156.692 157.750 C 152.965 187.863, 149.934 213.113, 149.958 213.862 C 149.993 214.986, 154.314 215.141, 174.750 214.748 C 195.806 214.344, 200.666 213.958, 207.314 212.161 C 218.694 209.085, 226.464 204.621, 234.503 196.540 C 246.218 184.762, 252.005 169.611, 252.082 150.509 C 252.147 134.235, 248.954 124.901, 240.390 116.337 C 230.251 106.198, 216.874 103, 184.604 103 L 163.469 103 156.692 157.750 M 61.604 434.033 C 57.529 435.260, 53.160 439.759, 52.014 443.912 C 49.830 451.820, 55.693 460.264, 64.208 461.475 C 66.569 461.811, 154.305 461.954, 259.177 461.793 L 449.854 461.500 452.615 459.438 C 461.824 452.562, 461.824 442.438, 452.615 435.562 L 449.854 433.500 257.177 433.331 C 149.948 433.237, 63.216 433.548, 61.604 434.033" stroke="none" fill="black" fill-rule="evenodd"/>
</svg>